<svg id="Слой_1" data-name="Слой 1" xmlns="http://www.w3.org/2000/svg" viewBox="0 0 34.57 31.39"><defs><style>.cls-1{fill:red;}.cls-2{fill:#fff;stroke:red;}.cls-2,.cls-3{stroke-miterlimit:10;}.cls-3{fill:none;stroke:#fff;stroke-width:2px;}</style></defs><title>bell</title><path class="cls-1" d="M28.37,26.16l0-.07-.14-.28a22.24,22.24,0,0,1-1.32-7v-.32c0-.15,0-.3,0-.45v-.24a.78.78,0,0,0,0-.16A9.76,9.76,0,0,0,19.78,9H13.15a9.78,9.78,0,0,0-7.06,8.65,1,1,0,0,0,0,.17V18c0,.15,0,.3,0,.45v.27a22.17,22.17,0,0,1-1.3,7c0,.11-.1.2-.16.31l0,.07a7.87,7.87,0,0,0-1,3.62.59.59,0,0,0,0,.13A3.36,3.36,0,0,0,7,32.59h5.59a3.91,3.91,0,0,0,7.81,0H26a3.35,3.35,0,0,0,3.44-2.68.59.59,0,0,0,0-.13A7.75,7.75,0,0,0,28.37,26.16Zm-11.9,8.38a2.3,2.3,0,0,1-2.25-1.95h0a.48.48,0,0,1,.47-.57.53.53,0,0,1,.24.06H17.6a.4.4,0,0,1,.25-.05l.13,0a.45.45,0,0,1,.24-.07.48.48,0,0,1,.47.6h0A2.29,2.29,0,0,1,16.47,34.54ZM26,30.9H7a1.69,1.69,0,0,1-1.84-1.35A6.85,6.85,0,0,1,6,26.91l0-.09c0-.1.1-.19.15-.31a23.6,23.6,0,0,0,1.46-7.73v-.31c0-.12,0-.23,0-.35v-.28a8.08,8.08,0,0,1,6.42-7.38,7.48,7.48,0,0,1,1.38-.15h1.89a7.59,7.59,0,0,1,1.39.15,8.08,8.08,0,0,1,6.41,7.38v.28c0,.12,0,.23,0,.35v.36a23.91,23.91,0,0,0,1.47,7.71c.05.09.09.18.14.28a.41.41,0,0,0,0,.09,7,7,0,0,1,.89,2.64A1.69,1.69,0,0,1,26,30.9Z" transform="translate(-3.5 -4.84)"/><path class="cls-1" d="M14.22,30.9" transform="translate(-3.5 -4.84)"/><circle class="cls-2" cx="12.97" cy="2.5" r="2"/><line class="cls-3" x1="10.73" y1="26.73" x2="15.22" y2="26.73"/><circle class="cls-1" cx="23.77" cy="12.13" r="10.8"/></svg>