<svg id="Слой_1" data-name="Слой 1" xmlns="http://www.w3.org/2000/svg" viewBox="0 0 39.31 35.27"><defs><style>.cls-1,.cls-2{fill:none;stroke:#fff;stroke-miterlimit:10;}.cls-1{stroke-width:2px;}.cls-2{stroke-width:1.5px;}</style></defs><title>help</title><path class="cls-1" d="M14.9,33.3H32.67a2.59,2.59,0,0,0,2.58-2.58V10.05a2.59,2.59,0,0,0-2.58-2.59H3.91a2.59,2.59,0,0,0-2.58,2.59V30.72A2.59,2.59,0,0,0,3.91,33.3H8.49v3.59Z" transform="translate(-0.33 -3.32)"/><path class="cls-1" d="M35.25,30.16h.81a2.59,2.59,0,0,0,2.58-2.58V6.91a2.59,2.59,0,0,0-2.58-2.59H7.3A2.59,2.59,0,0,0,4.72,6.91v.55" transform="translate(-0.33 -3.32)"/><line class="cls-2" x1="6.67" y1="11.02" x2="30.7" y2="11.02"/><line class="cls-2" x1="7.23" y1="17.8" x2="24.86" y2="17.8"/><line class="cls-2" x1="7.23" y1="24.22" x2="28.51" y2="24.22"/><path class="cls-1" d="M5.39,5.51" transform="translate(-0.33 -3.32)"/><path class="cls-1" d="M.68,4.32" transform="translate(-0.33 -3.32)"/></svg>